# File created by Blade
# Date/Time:  Tue Jan 27 17:16:36 2015
#---------------------------------------------------------
:version 1.10
:name HOM
:units
  mass 1.0
  length 1.000000
  angle deg
:documentation
     Acclaim Skeleton File
:root
   axis xyz
   order TX TY TZ RX RY RZ
   position 0.000000 0.000000 0.000000
   orientation 0 0 0
:bonedata
   begin
      id 1
      name Spine_dum
      direction 0.000000 1.000000 0.000000
      length 7.539951
      axis 0.0 0.0 0.0 xyz
   end
   begin
      id 2
      name LeftUpLeg_dum
      direction 1.000000 0.000000 0.000000
      length 3.345476
      axis 0.0 0.0 0.0 xyz
   end
   begin
      id 3
      name RightUpLeg_dum
      direction -1.000000 0.000000 0.000000
      length 3.345476
      axis 0.0 0.0 0.0 xyz
   end
   begin
      id 4
      name Spine
      direction 0.000000 1.000000 0.000000
      length 0.000000
      axis 0.0 0.0 0.0 xyz
      dof rx ry rz
   end
   begin
      id 5
      name Spine_dum1
      direction 0.000000 1.000000 0.000000
      length 15.093809
      axis 0.0 0.0 0.0 xyz
   end
   begin
      id 6
      name Spine_dum2
      direction 0.000000 1.000000 0.000000
      length 9.738928
      axis 0.0 0.0 0.0 xyz
   end
   begin
      id 7
      name Spine_dum3
      direction 0.000000 1.000000 0.000000
      length 9.738928
      axis 0.0 0.0 0.0 xyz
   end
   begin
      id 8
      name Head
      direction 0.000000 1.000000 0.000000
      length 4.527550
      axis 0.0 0.0 0.0 xyz
      dof rx ry rz
   end
   begin
      id 9
      name LeftShoulder
      direction 1.000000 0.000000 0.000000
      length 7.084015
      axis 0.0 0.0 -90.0 xyz
      dof rx ry rz
   end
   begin
      id 10
      name LeftArm
      direction 1.000000 0.000000 0.000000
      length 10.259319
      axis 0.0 0.0 -90.0 xyz
      dof rx ry rz
   end
   begin
      id 11
      name LeftForeArm
      direction 1.000000 0.000000 0.000000
      length 9.896984
      axis 0.0 0.0 -90.0 xyz
      dof ry rz rx
   end
   begin
      id 12
      name LeftHand
      direction 0.000000 0.000000 0.000000
      length 0.000000
      axis 0.0 0.0 -90.0 xyz
      dof rx ry rz
   end
   begin
      id 13
      name LeftHand_dum1
      direction 0.000000 0.000000 0.000000
      length 0.000000
      axis 0.0 0.0 -90.0 xyz
   end
   begin
      id 14
      name LeftHand_dum2
      direction 1.000000 0.000000 0.000000
      length 3.937000
      axis 0.0 0.0 -90.0 xyz
   end
   begin
      id 15
      name LeftHandThumb1
      direction 0.000000 0.000000 1.000000
      length 3.937000
      axis 0.0 0.0 -90.0 xyz
      dof rx rz ry
   end
   begin
      id 16
      name RightShoulder
      direction -1.000000 0.000000 0.000000
      length 7.084015
      axis 0.0 0.0 90.0 xyz
      dof rx ry rz
   end
   begin
      id 17
      name RightArm
      direction -1.000000 0.000000 0.000000
      length 10.259319
      axis 0.0 0.0 90.0 xyz
      dof rx ry rz
   end
   begin
      id 18
      name RightForeArm
      direction -1.000000 0.000000 0.000000
      length 9.896984
      axis 0.0 0.0 90.0 xyz
      dof ry rz rx
   end
   begin
      id 19
      name RightHand
      direction 0.000000 0.000000 0.000000
      length 0.000000
      axis 0.0 0.0 90.0 xyz
      dof rx ry rz
   end
   begin
      id 20
      name RightHand_dum1
      direction 0.000000 0.000000 0.000000
      length 0.000000
      axis 0.0 0.0 90.0 xyz
   end
   begin
      id 21
      name RightHand_dum2
      direction -1.000000 0.000000 0.000000
      length 3.937000
      axis 0.0 0.0 90.0 xyz
   end
   begin
      id 22
      name RightHandThumb1
      direction 0.000000 0.000000 1.000000
      length 3.937000
      axis 0.0 0.0 90.0 xyz
      dof rx rz ry
   end
   begin
      id 23
      name LeftUpLeg
      direction 0.000000 -1.000000 0.000000
      length 19.114733
      axis 0.0 0.0 0.0 xyz
      dof rx ry rz
   end
   begin
      id 24
      name LeftLeg
      direction 0.000000 -1.000000 0.000000
      length 16.045604
      axis 0.0 0.0 0.0 xyz
      dof rx ry rz
   end
   begin
      id 25
      name LeftFoot
      direction 0.000000 -0.258819 0.965926
      length 5.543155
      axis 15.0 0.0 0.0 xyz
      dof rx ry rz
   end
   begin
      id 26
      name LeftToeBase
      direction 0.000000 0.000000 1.000000
      length 2.952750
      axis 0.0 0.0 0.0 xyz
      dof rx ry rz
   end
   begin
      id 27
      name RightUpLeg
      direction 0.000000 -1.000000 0.000000
      length 19.114733
      axis 0.0 0.0 0.0 xyz
      dof rx ry rz
   end
   begin
      id 28
      name RightLeg
      direction 0.000000 -1.000000 0.000000
      length 16.045604
      axis 0.0 0.0 0.0 xyz
      dof rx ry rz
   end
   begin
      id 29
      name RightFoot
      direction 0.000000 -0.258819 0.965926
      length 5.543155
      axis 15.0 0.0 0.0 xyz
      dof rx ry rz
   end
   begin
      id 30
      name RightToeBase
      direction 0.000000 0.000000 1.000000
      length 2.952750
      axis 0.0 0.0 0.0 xyz
      dof rx ry rz
   end
:hierarchy
   begin
      root Spine_dum LeftUpLeg_dum RightUpLeg_dum
      Spine_dum Spine
      LeftUpLeg_dum LeftUpLeg
      RightUpLeg_dum RightUpLeg
      Spine Spine_dum1 Spine_dum2 Spine_dum3
      Spine_dum1 Head
      Spine_dum2 LeftShoulder
      Spine_dum3 RightShoulder
      LeftShoulder LeftArm
      LeftArm LeftForeArm
      LeftForeArm LeftHand
      LeftHand LeftHand_dum1 LeftHand_dum2
      LeftHand_dum1 LeftHandThumb1
      RightShoulder RightArm
      RightArm RightForeArm
      RightForeArm RightHand
      RightHand RightHand_dum1 RightHand_dum2
      RightHand_dum1 RightHandThumb1
      LeftUpLeg LeftLeg
      LeftLeg LeftFoot
      LeftFoot LeftToeBase
      RightUpLeg RightLeg
      RightLeg RightFoot
      RightFoot RightToeBase
   end

# File created by Blade
# Date/Time:  Tue Jan 27 17:16:27 2015
# Frame Rate: 120.000 fps
#------------------------------------------------------
:FULLY-SPECIFIED
:DEGREES
1825
root -3.438963 36.607991 1.817209 5.290826 23.909414 7.056400
Spine 5.556857 4.176664 -6.627477
Head -4.406644 -0.621676 4.410087
LeftShoulder -1.013818 -15.301059 9.602475
LeftArm 1.245556 -19.089282 -35.132865
LeftForeArm 4.309150 -0.000000 60.850053
LeftHand -14.213944 -0.000000 53.790599
LeftHandThumb1 -26.253704 0.000000 33.147579
RightShoulder -4.865874 -16.995793 2.182920
RightArm 11.475204 -19.259023 57.919743
RightForeArm -176.378261 -0.000000 28.664158
RightHand 0.514525 0.000000 3.415874
RightHandThumb1 -24.326973 -0.000000 -32.862282
LeftUpLeg -73.949653 19.593408 4.858221
LeftLeg 93.136366 -0.000000 -0.000000
LeftFoot -11.152384 11.158147 -26.883980
LeftToeBase 16.700141 -0.000000 -0.000000
RightUpLeg -12.311612 -12.021939 3.027319
RightLeg 24.359048 -0.000000 -0.000000
RightFoot -20.674674 -14.873558 3.080100
RightToeBase 3.970437 -0.000000 -0.000000
1826
root -3.439434 36.604395 1.810188 5.313255 23.976564 6.963357
Spine 5.544205 4.148349 -6.533360
Head -4.487151 -0.565984 4.467831
LeftShoulder -1.079440 -15.326732 9.669999
LeftArm 1.297393 -19.005853 -35.243097
LeftForeArm 4.316243 -0.000000 60.913471
LeftHand -14.213074 -0.000000 53.949422
LeftHandThumb1 -26.253704 0.000000 33.147579
RightShoulder -4.884024 -16.954223 2.205807
RightArm 11.538587 -19.254901 57.850188
RightForeArm -176.380242 0.000000 28.664521
RightHand 0.575192 -0.000000 3.479006
RightHandThumb1 -24.326973 -0.000000 -32.862282
LeftUpLeg -73.793021 19.625273 4.623999
LeftLeg 92.713896 -0.000000 -0.000000
LeftFoot -10.909877 10.821226 -27.232699
LeftToeBase 16.713986 -0.000000 -0.000000
RightUpLeg -12.354098 -12.082541 3.125686
RightLeg 24.308588 -0.000000 -0.000000
RightFoot -20.667223 -14.851030 3.063933
RightToeBase 4.017236 -0.000000 -0.000000
1827
root -3.440304 36.600084 1.803669 5.318887 24.039473 6.838035
Spine 5.484078 4.172633 -6.378437
Head -4.428755 -0.595452 4.475284
LeftShoulder -1.007849 -15.308617 9.665088
LeftArm 1.284961 -18.948453 -35.286235
LeftForeArm 4.312230 -0.000000 60.975330
LeftHand -14.252636 -0.000000 54.069840
LeftHandThumb1 -26.253704 0.000000 33.147579
RightShoulder -4.868750 -16.961320 2.167306
RightArm 11.554167 -19.090991 57.895022
RightForeArm -176.448398 0.000000 28.632564
RightHand 0.510300 -0.000000 3.590574
RightHandThumb1 -24.326973 -0.000000 -32.862282
LeftUpLeg -73.675743 19.691581 4.375831
LeftLeg 92.341684 -0.000000 -0.000000
LeftFoot -10.619166 10.456861 -27.457415
LeftToeBase 16.618145 -0.000000 -0.000000
RightUpLeg -12.393150 -12.136289 3.253211
RightLeg 24.254322 -0.000000 -0.000000
RightFoot -20.648195 -14.826941 3.059997
RightToeBase 4.024776 -0.000000 -0.000000
1828
root -3.441359 36.595723 1.797548 5.317929 24.113740 6.709809
Spine 5.451586 4.172104 -6.237866
Head -4.439722 -0.638326 4.528997
LeftShoulder -0.975586 -15.350266 9.692912
LeftArm 1.249761 -18.849357 -35.341891
LeftForeArm 4.338599 -0.000000 61.070181
LeftHand -14.303672 -0.000000 54.240897
LeftHandThumb1 -26.253704 0.000000 33.147579
RightShoulder -4.867527 -16.945112 2.179540
RightArm 11.577075 -18.973277 57.861875
RightForeArm -176.417289 0.000000 28.658496
RightHand 0.533147 0.000000 3.593792
RightHandThumb1 -24.326973 -0.000000 -32.862282
LeftUpLeg -73.588566 19.753551 4.098911
LeftLeg 91.995088 -0.000000 -0.000000
LeftFoot -10.360974 10.124783 -27.799348
LeftToeBase 16.833301 -0.000000 -0.000000
RightUpLeg -12.425058 -12.218134 3.381229
RightLeg 24.197893 -0.000000 -0.000000
RightFoot -20.627103 -14.772146 3.054191
RightToeBase 4.054808 -0.000000 -0.000000
1829
root -3.443362 36.590084 1.792128 5.307358 24.186312 6.579088
Spine 5.435570 4.175602 -6.112385
Head -4.479446 -0.686390 4.626745
LeftShoulder -0.961113 -15.395241 9.747263
LeftArm 1.215161 -18.702957 -35.385305
LeftForeArm 4.343224 -0.000000 61.197721
LeftHand -14.383246 0.000000 54.460224
LeftHandThumb1 -26.253704 0.000000 33.147579
RightShoulder -4.866067 -16.932048 2.204569
RightArm 11.618706 -18.880478 57.802324
RightForeArm -176.344462 -0.000000 28.695153
RightHand 0.504012 -0.000000 3.689666
RightHandThumb1 -24.326973 -0.000000 -32.862282
LeftUpLeg -73.510000 19.825974 3.842229
LeftLeg 91.718850 -0.000000 -0.000000
LeftFoot -9.893964 9.718161 -27.769851
LeftToeBase 16.455802 -0.000000 -0.000000
RightUpLeg -12.456904 -12.297230 3.514990
RightLeg 24.163471 -0.000000 -0.000000
RightFoot -20.619966 -14.746865 3.015992
RightToeBase 4.121681 -0.000000 -0.000000
1830
root -3.444296 36.585641 1.786815 5.286318 24.254568 6.447439
Spine 5.435240 4.149335 -5.996101
Head -4.533909 -0.716857 4.749316
LeftShoulder -0.971452 -15.431008 9.812567
LeftArm 1.159110 -18.582203 -35.433229
LeftForeArm 4.393949 -0.000000 61.366577
LeftHand -14.444281 0.000000 54.630188
LeftHandThumb1 -26.253704 0.000000 33.147579
RightShoulder -4.834337 -16.910765 2.251724
RightArm 11.646112 -18.805723 57.691107
RightForeArm -176.254685 -0.000000 28.796380
RightHand 0.571318 -0.000000 3.760347
RightHandThumb1 -24.326973 -0.000000 -32.862282
LeftUpLeg -73.455662 19.905071 3.542751
LeftLeg 91.465958 -0.000000 -0.000000
LeftFoot -9.502503 9.363818 -27.893027
LeftToeBase 16.220485 -0.000000 -0.000000
RightUpLeg -12.470659 -12.350840 3.643161
RightLeg 24.111883 -0.000000 -0.000000
RightFoot -20.599169 -14.717760 3.030462
RightToeBase 4.107812 -0.000000 -0.000000
1831
root -3.445765 36.579272 1.783146 5.260140 24.330207 6.343479
Spine 5.460093 4.153104 -5.922897
Head -4.613058 -0.778568 4.901215
LeftShoulder -0.950356 -15.449396 9.882568
LeftArm 1.112013 -18.461140 -35.454955
LeftForeArm 4.389507 -0.000000 61.559282
LeftHand -14.498619 0.000000 54.742493
LeftHandThumb1 -26.253704 0.000000 33.147579
RightShoulder -4.850772 -16.874194 2.305792
RightArm 11.702268 -18.761105 57.598165
RightForeArm -176.152063 -0.000000 28.877078
RightHand 0.500116 0.000000 3.893470
RightHandThumb1 -24.326973 -0.000000 -32.862282
LeftUpLeg -73.404609 19.988148 3.228639
LeftLeg 91.265661 -0.000000 -0.000000
LeftFoot -9.021757 8.970473 -27.854246
LeftToeBase 15.782129 -0.000000 -0.000000
RightUpLeg -12.471664 -12.413131 3.744233
RightLeg 24.076022 -0.000000 -0.000000
RightFoot -20.614644 -14.681548 3.071209
RightToeBase 4.110397 -0.000000 -0.000000
1832
root -3.447313 36.573869 1.776280 5.235084 24.378718 6.168176
Spine 5.441232 4.176255 -5.746858
Head -4.670871 -0.862670 4.993944
LeftShoulder -0.940212 -15.442698 9.919251
LeftArm 1.084004 -18.332367 -35.502396
LeftForeArm 4.406700 -0.000000 61.770938
LeftHand -14.644942 -0.000000 54.927303
LeftHandThumb1 -26.253704 0.000000 33.147579
RightShoulder -4.853709 -16.843317 2.327773
RightArm 11.769149 -18.769669 57.451023
RightForeArm -175.943025 -0.000000 28.960258
RightHand 0.479036 -0.000000 4.023508
RightHandThumb1 -24.326973 -0.000000 -32.862282
LeftUpLeg -73.420815 20.105302 2.956693
LeftLeg 91.115659 -0.000000 -0.000000
LeftFoot -8.628551 8.522425 -27.998750
LeftToeBase 15.553611 -0.000000 -0.000000
RightUpLeg -12.507695 -12.440086 3.914682
RightLeg 24.031748 -0.000000 -0.000000
RightFoot -20.584247 -14.677829 3.065497
RightToeBase 4.192903 -0.000000 -0.000000
1833
root -3.446450 36.567531 1.772818 5.194630 24.483899 6.054130
Spine 5.438765 4.184913 -5.640712
Head -4.643001 -0.987882 5.114312
LeftShoulder -0.822498 -15.405544 9.923511
LeftArm 1.011304 -18.188647 -35.439679
LeftForeArm 4.350509 -0.000000 61.971747
LeftHand -14.701942 -0.000000 55.110756
LeftHandThumb1 -26.253704 0.000000 33.147579
RightShoulder -4.857223 -16.840633 2.345524
RightArm 11.825992 -18.688623 57.383111
RightForeArm -175.867440 -0.000000 29.011224
RightHand 0.502423 -0.000000 4.085057
RightHandThumb1 -24.326973 -0.000000 -32.862282
LeftUpLeg -73.416056 20.159463 2.631475
LeftLeg 90.986130 -0.000000 -0.000000
LeftFoot -8.323139 8.114825 -28.132131
LeftToeBase 15.501976 -0.000000 -0.000000
RightUpLeg -12.494584 -12.564866 4.025041
RightLeg 23.988101 -0.000000 -0.000000
RightFoot -20.588733 -14.634634 3.056204
RightToeBase 4.174768 -0.000000 -0.000000
